<?xml version="1.0" encoding="UTF-8"?>
<svg width="30px" height="30px" viewBox="0 0 30 30" xmlns="http://www.w3.org/2000/svg" xmlns:xlink="http://www.w3.org/1999/xlink" version="1.1">
 <defs>
  <path id="shape-path" title="Path" d="M 14.9998779296875 0.3121337890625 C 6.85595703125 0.3121337890625 0.263916015625 6.904052734375 0.263916015625 15.0400390625 C 0.263916015625 23.172119140625 6.85986328125 29.76806640625 14.9998779296875 29.76806640625 C 23.1319580078125 29.76806640625 29.7279052734375 23.172119140625 29.7279052734375 15.0400390625 C 29.7279052734375 6.904052734375 23.1319580078125 0.3121337890625 14.9998779296875 0.3121337890625 Z"/>
 </defs>
 <defs>
  <linearGradient id="linear-gradient" gradientUnits="userSpaceOnUse" x1="15.1414996562923" y1="0.295722990209491" x2="15.1414996562923" y2="29.7558919100023">
   <stop offset="0.0" stop-color="#2f80ed" stop-opacity="1.0"/>
   <stop offset="1.0" stop-color="#2d9cdb" stop-opacity="1.0"/>
  </linearGradient>
 </defs>
 <use id="path" xlink:href="#shape-path" fill="url(#linear-gradient)" fill-opacity="1.0" stroke="none"/>
 <defs>
  <path id="shape-path-1" title="Path" d="M 18.8798828125 4.256103515625 L 11.10791015625 4.256103515625 C 10.135986328125 4.256103515625 9.3399658203125 4.9801025390625 9.3399658203125 5.864013671875 L 9.3399658203125 24.1881103515625 C 9.3399658203125 25.0760498046875 10.135986328125 25.7960205078125 11.10791015625 25.7960205078125 L 18.8798828125 25.7960205078125 C 19.8519287109375 25.7960205078125 20.64794921875 25.072021484375 20.64794921875 24.18408203125 L 20.64794921875 5.864013671875 C 20.64794921875 4.9801025390625 19.8519287109375 4.256103515625 18.8798828125 4.256103515625 M 13.9359130859375 5.5440673828125 L 16.055908203125 5.5440673828125 C 16.251953125 5.5440673828125 16.4119873046875 5.6881103515625 16.4119873046875 5.864013671875 C 16.4119873046875 6.0400390625 16.251953125 6.18408203125 16.055908203125 6.18408203125 L 13.9359130859375 6.18408203125 C 13.739990234375 6.18408203125 13.5799560546875 6.0400390625 13.5799560546875 5.864013671875 C 13.583984375 5.6881103515625 13.739990234375 5.5440673828125 13.9359130859375 5.5440673828125 M 14.9959716796875 25.156005859375 C 14.4119873046875 25.156005859375 13.9359130859375 24.7239990234375 13.9359130859375 24.1920166015625 C 13.9359130859375 23.6600341796875 14.407958984375 23.22802734375 14.9959716796875 23.22802734375 C 15.5799560546875 23.22802734375 16.055908203125 23.6600341796875 16.055908203125 24.1920166015625 C 16.055908203125 24.7239990234375 15.583984375 25.156005859375 14.9959716796875 25.156005859375 M 19.9439697265625 22.5841064453125 L 10.0479736328125 22.5841064453125 L 10.0479736328125 7.47607421875 L 19.93994140625 7.47607421875 L 19.93994140625 22.5841064453125 Z"/>
 </defs>
 <use id="path-1" xlink:href="#shape-path-1" fill="#ffffff" fill-opacity="1.0" stroke="none"/>
</svg>
